<?xml version="1.0" standalone="no"?>
<!DOCTYPE svg PUBLIC "-//W3C//DTD SVG 20010904//EN"
 "http://www.w3.org/TR/2001/REC-SVG-20010904/DTD/svg10.dtd">
<svg version="1.0" xmlns="http://www.w3.org/2000/svg"
 width="1024.000000pt" height="1024.000000pt" viewBox="0 0 1024.000000 1024.000000"
 preserveAspectRatio="xMidYMid meet">

<g transform="translate(0.000000,1024.000000) scale(0.100000,-0.100000)"
fill="#000000" stroke="none">
<path d="M5120 8196 c-21 -8 -49 -31 -69 -56 -29 -38 -32 -50 -28 -87 8 -75
78 -143 146 -143 79 0 154 104 130 179 -27 84 -107 132 -179 107z"/>
<path d="M4342 8030 c-44 -18 -56 -103 -19 -144 32 -37 75 -43 110 -15 40 31
50 62 33 103 -24 57 -69 77 -124 56z"/>
<path d="M5892 8024 c-12 -8 -29 -28 -37 -44 -13 -26 -14 -34 -1 -64 15 -36
50 -66 78 -66 9 0 33 14 53 31 27 24 35 39 35 64 0 25 -8 40 -35 64 -40 35
-60 38 -93 15z"/>
<path d="M3593 7701 c-39 -24 -51 -67 -28 -110 20 -40 66 -64 97 -52 76 29 88
130 19 166 -39 19 -49 19 -88 -4z"/>
<path d="M6637 7709 c-46 -27 -56 -101 -19 -143 42 -47 106 -35 137 25 37 70
-50 158 -118 118z"/>
<path d="M4920 7569 c-219 -27 -549 -116 -715 -193 -112 -52 -165 -79 -200
-101 -22 -14 -47 -28 -55 -32 -22 -10 -111 -69 -140 -92 -14 -11 -29 -21 -34
-21 -5 0 -25 -15 -46 -32 -20 -18 -50 -42 -65 -53 -16 -11 -36 -28 -44 -38 -9
-11 -36 -35 -61 -54 -91 -70 -286 -301 -405 -478 -65 -98 -172 -297 -220 -410
-59 -142 -115 -343 -152 -555 -29 -166 -26 -548 6 -735 71 -427 245 -817 517
-1162 67 -86 433 -463 449 -463 6 0 201 -156 240 -192 11 -10 53 -44 93 -75
39 -31 72 -60 72 -65 0 -4 4 -8 10 -8 12 0 169 -120 201 -155 13 -13 28 -25
33 -25 5 0 30 -17 55 -37 25 -21 51 -41 56 -45 6 -4 26 -20 45 -35 19 -15 42
-32 52 -38 34 -21 204 -154 222 -174 11 -11 23 -21 28 -21 15 0 153 -111 153
-124 0 -13 -1114 -21 -1127 -8 -29 29 253 142 352 142 35 0 91 38 108 73 23
48 -16 120 -85 156 -66 34 -307 -13 -463 -90 -70 -34 -232 -145 -297 -203 -97
-87 -95 -86 -245 -86 -163 0 -209 -14 -239 -71 -28 -55 -24 -85 18 -140 30
-40 43 -49 77 -54 23 -3 957 -5 2076 -3 l2035 3 37 28 c69 53 70 132 3 197
l-36 35 -157 3 -157 4 -30 31 c-89 92 -337 267 -379 267 -6 0 -16 4 -22 9 -17
16 -197 69 -276 81 -94 14 -143 3 -187 -42 -79 -81 -41 -162 89 -188 70 -15
192 -51 205 -60 6 -4 43 -25 83 -45 44 -22 70 -41 65 -46 -14 -14 -1135 -7
-1140 7 -2 7 114 103 259 215 359 277 374 288 533 413 206 162 528 434 620
523 346 335 566 669 705 1068 96 276 146 672 122 970 -17 211 -93 524 -172
710 -29 69 -110 233 -135 275 -12 19 -37 62 -55 95 -18 33 -42 71 -54 85 -34
39 -76 98 -76 107 0 4 -12 22 -28 38 -15 17 -44 50 -66 75 -62 73 -247 260
-256 260 -5 0 -17 11 -28 25 -11 14 -23 25 -28 25 -4 0 -14 7 -23 15 -17 16
-127 97 -194 140 -72 48 -174 102 -337 178 -154 71 -386 140 -615 182 -106 20
-461 28 -575 14z m515 -315 c190 -26 321 -66 544 -164 237 -105 430 -232 608
-404 304 -291 505 -638 609 -1050 69 -272 72 -627 9 -925 -22 -104 -108 -363
-150 -451 -101 -209 -266 -443 -424 -601 -289 -289 -620 -481 -987 -574 -34
-8 -67 -15 -73 -15 -8 0 -11 202 -11 724 0 715 0 724 21 749 11 15 40 35 64
46 63 28 171 99 236 157 166 145 302 385 349 614 30 145 24 368 -13 512 -51
193 -149 362 -291 503 -177 175 -394 285 -622 316 -113 15 -284 6 -390 -20
-384 -94 -700 -409 -804 -801 -28 -107 -39 -352 -20 -468 54 -341 277 -660
560 -802 128 -65 115 29 112 -808 -1 -399 -4 -728 -6 -730 -14 -13 -316 95
-481 174 -508 241 -912 705 -1092 1254 -151 458 -151 892 -1 1335 111 328 325
651 595 900 157 144 337 266 514 347 390 178 752 236 1144 182z m-124 -888
c244 -52 463 -233 560 -465 121 -288 49 -662 -171 -882 -75 -75 -135 -114
-258 -168 -81 -35 -112 -55 -136 -84 l-31 -39 -5 -991 c-4 -753 -8 -997 -17
-1013 -18 -31 -78 -57 -113 -49 -16 4 -41 20 -55 37 l-25 30 0 979 c0 1057 2
1017 -52 1067 -14 13 -59 37 -99 53 -271 110 -433 299 -494 575 -24 105 -17
300 15 399 69 218 213 390 405 486 151 74 321 98 476 65z"/>
<path d="M4773 5990 c-51 -21 -52 -32 -53 -375 0 -176 -1 -337 0 -357 0 -24 9
-47 26 -67 44 -52 130 -39 163 26 13 26 15 624 2 693 -15 73 -72 106 -138 80z"/>
<path d="M5099 5971 l-29 -29 0 -352 c0 -293 2 -356 15 -380 31 -60 103 -69
151 -19 l29 30 3 337 c2 224 0 350 -8 374 -20 70 -108 91 -161 39z"/>
<path d="M5458 5971 l-33 -29 -3 -348 c-2 -250 1 -356 9 -376 27 -65 109 -79
160 -29 l29 29 0 362 0 362 -29 29 c-40 40 -89 40 -133 0z"/>
<path d="M3010 7214 c-40 -27 -50 -45 -50 -90 0 -104 117 -147 180 -67 33 42
27 98 -14 139 -38 38 -76 44 -116 18z"/>
<path d="M7198 7203 c-27 -28 -48 -72 -48 -98 0 -22 57 -82 85 -89 35 -9 98
19 113 51 6 15 12 44 12 64 0 30 -7 43 -35 68 -47 41 -91 42 -127 4z"/>
<path d="M2445 6390 c-50 -19 -73 -75 -50 -119 31 -60 100 -71 136 -21 29 42
31 64 7 100 -25 36 -61 52 -93 40z"/>
<path d="M7802 6374 c-35 -24 -44 -59 -28 -99 25 -60 85 -73 128 -27 35 38 40
59 23 92 -26 50 -79 65 -123 34z"/>
<path d="M2230 5323 c-39 -7 -108 -80 -115 -122 -16 -95 86 -194 180 -177 40
8 110 79 119 124 8 33 -13 93 -42 125 -32 36 -94 58 -142 50z"/>
<path d="M8028 5323 c-14 -2 -32 -11 -38 -19 -7 -8 -19 -14 -26 -14 -8 0 -14
-5 -14 -11 0 -6 -10 -24 -21 -41 -17 -23 -20 -39 -16 -75 17 -156 214 -191
278 -49 24 54 23 82 -4 130 -33 59 -95 89 -159 79z"/>
</g>
</svg>
